<svg width="64" height="64" viewBox="0 0 46 42" fill="none" xmlns="http://www.w3.org/2000/svg">
<path d="M37.4536 10.6847C37.2911 10.6609 37.1797 10.5258 37.1724 10.3688C37.0958 7.90224 34.6821 7.22671 33.939 7.07883C33.8058 7.05144 33.6725 7.10622 33.6067 7.21576C33.3292 7.67037 32.6975 8.95752 33.1777 10.5167C33.1923 10.5733 33.2142 10.6263 33.2398 10.6792C33.4643 11.1886 34.5543 14.3636 28.418 17.1679C25.3598 18.5646 22.7289 20.4579 20.7827 22.7091C21.356 20.2881 22.0388 17.8069 22.6961 15.3842C25.7597 4.09738 14.5697 -1.6519 6.4396 2.04707C0.723176 4.64328 -0.0892822 9.47421 0.00748249 12.4191C0.0220885 12.976 0.812638 13.1403 1.07189 12.6401C1.38592 12.0284 1.83688 11.3383 2.4832 10.6208C4.08621 8.82607 6.8084 7.54987 9.77524 7.90407C16.8975 8.76582 17.7848 15.7603 15.5391 21.6866C8.98652 38.971 24.6971 41.0706 24.6971 41.0706C22.4843 39.6283 20.7516 36.8312 20.2642 33.4426C19.899 30.8957 20.308 28.4857 21.2647 26.6162C22.1666 24.6078 24.0289 22.574 27.6037 20.7007C33.625 17.544 35.2426 15.05 35.4654 13.5821C35.5311 13.1604 35.9455 12.8811 36.3855 12.9486C40.0279 13.5292 41.4794 15.5375 42.0454 16.8539C42.3229 17.4984 42.0052 18.2615 41.337 18.5427C40.2032 19.0211 38.2514 19.6966 35.9985 19.8445C35.7392 19.8591 35.5238 20.2407 35.7575 20.3484C39.4017 22.0208 44.3896 20.2626 45.3299 18.9517C45.3755 18.8878 45.4266 18.8184 45.4266 18.7399C45.4741 12.3041 38.9069 10.9111 37.4536 10.6829V10.6847Z" fill="#F37820"/>
</svg>
