<svg width="64" height="64" viewBox="0 0 30 28" fill="none" xmlns="http://www.w3.org/2000/svg">
<path fill-rule="evenodd" clip-rule="evenodd" d="M9.15869 7.67442C9.15869 10.1178 11.4664 10.8061 16.6588 11.3912C26.1419 12.3203 30.0001 14.695 30.0001 19.5131C30.0001 24.7439 25.4569 27.7725 16.0818 27.7725H14.4952C4.25482 27.7725 0 23.6083 0 18.4118H8.0409C8.29331 21.509 11.1779 22.8856 15.5048 23.0232C19.9759 22.8856 21.5265 21.6812 21.5265 19.8572C21.5265 17.4481 19.1468 16.7253 13.3775 15.9683C4.65146 14.867 0.685099 12.8022 0.685099 7.8809C0.685099 3.64793 3.75001 0 13.5217 0C13.6299 0 13.7741 0 13.8823 0C13.9905 0 14.1347 0 14.2428 0C14.5313 0 14.7837 0 15.0722 0C25.2767 0 29.351 4.40504 29.4233 8.60359H21.166C20.9136 6.53873 18.678 4.92127 14.0987 4.74918C10.4928 4.88684 9.15869 6.02252 9.15869 7.67442Z" fill="#101828"/>
</svg>
