<svg width="38" height="38" viewBox="0 0 38 38" fill="none" xmlns="http://www.w3.org/2000/svg">
<g filter="url(#filter0_dddi_2563_2312)">
<path d="M15.7998 2.09961H22.2002C24.442 2.09961 26.1173 2.1004 27.4463 2.20898C28.7741 2.31747 29.7477 2.53335 30.5869 2.96094C32.0732 3.7183 33.2817 4.92681 34.0391 6.41309C34.4666 7.25227 34.6825 8.22592 34.791 9.55371C34.8996 10.8827 34.9004 12.558 34.9004 14.7998V21.2002C34.9004 23.442 34.8996 25.1173 34.791 26.4463C34.6825 27.7741 34.4666 28.7477 34.0391 29.5869C33.2817 31.0732 32.0732 32.2817 30.5869 33.0391C29.7477 33.4666 28.7741 33.6825 27.4463 33.791C26.1173 33.8996 24.442 33.9004 22.2002 33.9004H15.7998C13.558 33.9004 11.8827 33.8996 10.5537 33.791C9.22592 33.6825 8.25227 33.4666 7.41309 33.0391C5.92681 32.2817 4.7183 31.0732 3.96094 29.5869C3.53335 28.7477 3.31747 27.7741 3.20898 26.4463C3.1004 25.1173 3.09961 23.442 3.09961 21.2002V14.7998C3.09961 12.558 3.1004 10.8827 3.20898 9.55371C3.31747 8.22592 3.53335 7.25227 3.96094 6.41309C4.7183 4.92681 5.92681 3.7183 7.41309 2.96094C8.25227 2.53335 9.22592 2.31747 10.5537 2.20898C11.8827 2.1004 13.558 2.09961 15.7998 2.09961Z" stroke="#0A0D12" stroke-opacity="0.12" stroke-width="0.2" shape-rendering="crispEdges"/>
<path d="M27.4199 26.1547C26.6469 28.1038 25.1106 29.0138 23.7351 30.4792C22.7239 31.5567 21.848 32.7545 21.0072 33.9611C20.9751 34.0071 20.9083 34.0134 20.8679 33.9742C20.7149 33.8259 20.436 33.4475 20.3622 33.3681C18.4791 31.3424 16.9154 30.8612 14.5775 29.5977C8.70276 26.4221 8.82022 19.3968 13.0108 14.8808C15.4342 12.269 18.4256 10.0412 17.5584 6.03882C17.2399 4.56802 16.2974 3.16839 15.2362 2.10239C15.2176 2.0838 15.2134 2.05584 15.2256 2.03296C15.2387 2.00818 15.2675 1.99515 15.2953 2.00167C16.171 2.20772 16.9851 2.62904 17.7075 3.14552C20.9541 5.46801 22.5137 9.1933 20.865 12.969C20.3388 14.174 19.1286 15.4905 19.2842 16.8412C19.3373 17.3035 19.7322 17.6263 20.214 17.5463C20.5602 17.4886 21.5342 16.4189 21.7617 16.1071C22.8237 14.6526 23.1499 12.9537 23.0103 11.1846C22.9762 10.7505 22.746 10.1789 22.7312 9.79875C22.7307 9.78509 22.7296 9.77349 22.7287 9.76332C22.7245 9.70931 22.7942 9.68182 22.8294 9.72376C24.2027 11.3534 25.0985 13.4913 25.0001 15.6308C24.9006 17.7868 23.8822 20.3728 22.7695 22.2229C21.9046 23.6611 20.1749 24.9907 20.3611 26.8222C20.3891 27.0977 20.5519 27.5063 20.8234 27.6647C20.9481 27.7373 21.1094 27.6684 21.1361 27.5292C21.3946 26.1831 22.321 25.1263 23.3413 24.2357C24.2944 23.404 25.3282 22.8768 25.8618 21.6443C26.1821 20.9052 26.1326 19.7892 25.9639 19.0106C25.9099 18.7624 25.801 18.5211 25.7461 18.2931C25.7103 18.1444 25.9395 18.3236 25.9734 18.3547C28.1508 20.3638 28.4729 23.4997 27.4196 26.1547H27.4199Z" fill="white"/>
</g>
<defs>
<filter id="filter0_dddi_2563_2312" x="0" y="0" width="38" height="38" filterUnits="userSpaceOnUse" color-interpolation-filters="sRGB">
<feFlood flood-opacity="0" result="BackgroundImageFix"/>
<feColorMatrix in="SourceAlpha" type="matrix" values="0 0 0 0 0 0 0 0 0 0 0 0 0 0 0 0 0 0 127 0" result="hardAlpha"/>
<feOffset dy="1"/>
<feGaussianBlur stdDeviation="1"/>
<feColorMatrix type="matrix" values="0 0 0 0 0.0392157 0 0 0 0 0.0509804 0 0 0 0 0.0705882 0 0 0 0.06 0"/>
<feBlend mode="normal" in2="BackgroundImageFix" result="effect1_dropShadow_2563_2312"/>
<feColorMatrix in="SourceAlpha" type="matrix" values="0 0 0 0 0 0 0 0 0 0 0 0 0 0 0 0 0 0 127 0" result="hardAlpha"/>
<feOffset dy="1"/>
<feGaussianBlur stdDeviation="1.5"/>
<feColorMatrix type="matrix" values="0 0 0 0 0.0392157 0 0 0 0 0.0509804 0 0 0 0 0.0705882 0 0 0 0.1 0"/>
<feBlend mode="normal" in2="effect1_dropShadow_2563_2312" result="effect2_dropShadow_2563_2312"/>
<feColorMatrix in="SourceAlpha" type="matrix" values="0 0 0 0 0 0 0 0 0 0 0 0 0 0 0 0 0 0 127 0" result="hardAlpha"/>
<feMorphology radius="0.5" operator="erode" in="SourceAlpha" result="effect3_dropShadow_2563_2312"/>
<feOffset dy="1"/>
<feGaussianBlur stdDeviation="0.5"/>
<feComposite in2="hardAlpha" operator="out"/>
<feColorMatrix type="matrix" values="0 0 0 0 0.0392157 0 0 0 0 0.0509804 0 0 0 0 0.0705882 0 0 0 0.13 0"/>
<feBlend mode="normal" in2="effect2_dropShadow_2563_2312" result="effect3_dropShadow_2563_2312"/>
<feBlend mode="normal" in="SourceGraphic" in2="effect3_dropShadow_2563_2312" result="shape"/>
<feColorMatrix in="SourceAlpha" type="matrix" values="0 0 0 0 0 0 0 0 0 0 0 0 0 0 0 0 0 0 127 0" result="hardAlpha"/>
<feOffset dy="-0.5"/>
<feGaussianBlur stdDeviation="0.25"/>
<feComposite in2="hardAlpha" operator="arithmetic" k2="-1" k3="1"/>
<feColorMatrix type="matrix" values="0 0 0 0 0.0392157 0 0 0 0 0.0509804 0 0 0 0 0.0705882 0 0 0 0.1 0"/>
<feBlend mode="normal" in2="shape" result="effect4_innerShadow_2563_2312"/>
</filter>
</defs>
</svg>
