<svg width="64" height="64" viewBox="0 0 33 33" fill="none" xmlns="http://www.w3.org/2000/svg">
<path d="M16.3151 0C20.6231 0.000312562 24.7546 1.73511 27.8007 4.8228C30.8469 7.91048 32.5581 12.0982 32.5581 16.4646C32.5578 20.85 30.8389 25.0556 27.7796 28.1566C24.7202 31.2575 20.5708 32.9997 16.2442 33H0V16.5365C0 12.1508 1.71891 7.94464 4.77859 4.84344C7.83826 1.74224 11.9881 0 16.3151 0V0Z" fill="#EE3889"/>
<path d="M2.87674 30.6573V15.7766C2.87674 15.7766 1.27209 5.77057 13.1756 4.48828H24.0093C24.0093 4.48828 22.9395 10.004 16.7198 10.004C16.7198 10.004 8.76163 9.10592 8.76163 15.6482V26.1669C8.76163 26.1669 7.02558 30.2719 2.87674 30.6573Z" fill="#07B6BF"/>
</svg>
