<svg width="283" height="283" viewBox="0 0 283 283" fill="none" xmlns="http://www.w3.org/2000/svg">
<circle cx="141.4" cy="141.4" r="141.4" fill="#7C8DFF" fill-opacity="0.1"/>
<circle cx="141.4" cy="141.4" r="140.537" stroke="white" stroke-opacity="0.2" stroke-width="1.72621"/>
<circle cx="141.399" cy="141.925" r="110.398" fill="#7C8DFF" fill-opacity="0.24"/>
<circle cx="141.399" cy="141.925" r="109.348" stroke="url(#paint0_linear_472_2625)" stroke-opacity="0.4" stroke-width="2.09992"/>
<circle cx="140.692" cy="142.42" r="80.1519" fill="url(#paint1_radial_472_2625)"/>
<circle cx="140.692" cy="142.42" r="86.0008" stroke="#7C8DFF" stroke-opacity="0.2" stroke-width="11.698"/>
<path d="M164.135 151.161C168.134 154.775 169.245 162.455 164.357 167.425C159.914 171.943 152.805 171.943 148.361 167.425C141.474 160.422 149.028 151.613 136.142 138.511C149.25 151.613 157.248 144.158 164.135 151.161Z" fill="white"/>
<path d="M145.023 123.378C144.801 117.956 149.244 111.631 156.131 111.631C162.352 111.631 167.462 116.827 167.462 123.152C167.462 131.736 158.797 134.898 156.576 141.449C156.353 141.901 155.687 141.901 155.465 141.449C153.243 135.124 145.023 131.962 145.023 123.378Z" fill="white"/>
<path d="M113.701 131.508C109.702 127.893 108.592 120.213 113.479 115.243C117.922 110.726 125.032 110.726 129.475 115.243C136.362 122.246 128.808 131.056 141.694 144.158C128.586 130.83 120.366 138.285 113.701 131.508Z" fill="white"/>
<path d="M132.583 159.066C132.805 164.488 128.362 170.813 121.475 170.813C115.255 170.813 110.145 165.617 110.145 159.292C110.145 150.708 118.809 147.546 121.031 140.995C121.253 140.543 121.919 140.543 122.142 140.995C124.363 147.546 132.583 150.482 132.583 159.066Z" fill="white"/>
<defs>
<linearGradient id="paint0_linear_472_2625" x1="141.399" y1="31.5273" x2="141.399" y2="252.323" gradientUnits="userSpaceOnUse">
<stop stop-color="white"/>
<stop offset="1" stop-color="white" stop-opacity="0.38"/>
</linearGradient>
<radialGradient id="paint1_radial_472_2625" cx="0" cy="0" r="1" gradientUnits="userSpaceOnUse" gradientTransform="translate(140.692 62.2681) rotate(90) scale(94.9317)">
<stop stop-color="#463393"/>
<stop offset="1" stop-color="#0E0732"/>
</radialGradient>
</defs>
</svg>
